<svg width="1728" height="584" viewBox="0 0 1728 584" fill="none" xmlns="http://www.w3.org/2000/svg">
<g clip-path="url(#clip0_2_3)">
<path d="M-155.141 -384.978C779.776 169.207 1608.88 165.753 2332.16 -395.34C3055.45 -956.433 3828.18 -1256.94 4650.36 -1296.86" stroke="url(#paint0_linear_2_3)" stroke-opacity="0.1" stroke-linecap="round"/>
<path opacity="0.96" d="M-144.509 -328.946C783.32 187.885 1608.88 165.754 2332.16 -395.339C3055.45 -956.433 3831.72 -1238.26 4660.99 -1240.83" stroke="url(#paint1_linear_2_3)" stroke-opacity="0.1" stroke-linecap="round"/>
<path opacity="0.93" d="M-133.876 -272.916C786.865 206.561 1608.88 165.753 2332.16 -395.34C3055.45 -956.433 3835.27 -1219.59 4671.62 -1184.8" stroke="url(#paint2_linear_2_3)" stroke-opacity="0.1" stroke-linecap="round"/>
<path opacity="0.89" d="M-123.243 -216.884C790.409 225.239 1608.88 165.754 2332.16 -395.339C3055.45 -956.432 3838.81 -1200.91 4682.26 -1128.76" stroke="url(#paint3_linear_2_3)" stroke-opacity="0.1" stroke-linecap="round"/>
<path opacity="0.85" d="M-112.612 -160.854C793.952 243.915 1608.88 165.753 2332.16 -395.34C3055.45 -956.433 3842.35 -1182.23 4692.89 -1072.73" stroke="url(#paint4_linear_2_3)" stroke-opacity="0.1" stroke-linecap="round"/>
<path opacity="0.82" d="M-101.979 -104.824C797.497 262.592 1608.88 165.753 2332.16 -395.34C3055.45 -956.433 3845.9 -1163.55 4703.52 -1016.7" stroke="url(#paint5_linear_2_3)" stroke-opacity="0.1" stroke-linecap="round"/>
<path opacity="0.78" d="M-91.3475 -48.7925C801.04 281.269 1608.88 165.754 2332.16 -395.34C3055.45 -956.433 3849.44 -1144.88 4714.15 -960.673" stroke="url(#paint6_linear_2_3)" stroke-opacity="0.1" stroke-linecap="round"/>
<path opacity="0.74" d="M-80.7152 7.23779C804.585 299.946 1608.88 165.753 2332.16 -395.34C3055.45 -956.433 3852.99 -1126.2 4724.79 -904.643" stroke="url(#paint7_linear_2_3)" stroke-opacity="0.1" stroke-linecap="round"/>
<path opacity="0.71" d="M-70.0831 63.2693C808.129 318.624 1608.88 165.754 2332.16 -395.339C3055.45 -956.432 3856.53 -1107.52 4735.42 -848.611" stroke="url(#paint8_linear_2_3)" stroke-opacity="0.1" stroke-linecap="round"/>
<path opacity="0.67" d="M-59.4506 119.3C811.673 337.3 1608.88 165.754 2332.16 -395.339C3055.45 -956.432 3860.08 -1088.85 4746.05 -792.581" stroke="url(#paint9_linear_2_3)" stroke-opacity="0.1" stroke-linecap="round"/>
<path opacity="0.63" d="M-48.8187 175.33C815.217 355.977 1608.88 165.753 2332.16 -395.34C3055.45 -956.433 3863.62 -1070.17 4756.68 -736.551" stroke="url(#paint10_linear_2_3)" stroke-opacity="0.1" stroke-linecap="round"/>
<path opacity="0.6" d="M-38.1862 231.36C818.761 374.653 1608.88 165.753 2332.16 -395.34C3055.45 -956.433 3867.16 -1051.49 4767.31 -680.52" stroke="url(#paint11_linear_2_3)" stroke-opacity="0.1" stroke-linecap="round"/>
<path opacity="0.56" d="M-27.5544 287.391C822.305 393.33 1608.88 165.753 2332.16 -395.34C3055.45 -956.433 3870.71 -1032.82 4777.95 -624.489" stroke="url(#paint12_linear_2_3)" stroke-opacity="0.1" stroke-linecap="round"/>
<path opacity="0.53" d="M-16.9217 343.422C825.849 412.007 1608.88 165.753 2332.16 -395.34C3055.45 -956.433 3874.25 -1014.14 4788.58 -568.458" stroke="url(#paint13_linear_2_3)" stroke-opacity="0.1" stroke-linecap="round"/>
<path opacity="0.49" d="M-6.28925 399.454C829.393 430.685 1608.88 165.754 2332.16 -395.339C3055.45 -956.432 3877.8 -995.462 4799.21 -512.427" stroke="url(#paint14_linear_2_3)" stroke-opacity="0.1" stroke-linecap="round"/>
<path opacity="0.45" d="M4.34254 455.484C832.937 449.361 1608.88 165.754 2332.16 -395.34C3055.45 -956.433 3881.34 -976.785 4809.84 -456.397" stroke="url(#paint15_linear_2_3)" stroke-opacity="0.1" stroke-linecap="round"/>
<path opacity="0.42" d="M14.9752 511.515C836.481 468.038 1608.88 165.754 2332.16 -395.339C3055.45 -956.433 3884.88 -958.108 4820.48 -400.366" stroke="url(#paint16_linear_2_3)" stroke-opacity="0.1" stroke-linecap="round"/>
<path opacity="0.38" d="M25.6071 567.545C840.025 486.715 1608.88 165.754 2332.16 -395.339C3055.45 -956.433 3888.43 -939.431 4831.11 -344.335" stroke="url(#paint17_linear_2_3)" stroke-opacity="0.1" stroke-linecap="round"/>
<path opacity="0.34" d="M36.2397 623.576C843.57 505.392 1608.88 165.754 2332.16 -395.339C3055.45 -956.432 3891.97 -920.754 4841.74 -288.304" stroke="url(#paint18_linear_2_3)" stroke-opacity="0.1" stroke-linecap="round"/>
<path opacity="0.31" d="M46.8721 679.606C847.114 524.069 1608.88 165.753 2332.16 -395.34C3055.45 -956.433 3895.52 -902.078 4852.37 -232.274" stroke="url(#paint19_linear_2_3)" stroke-opacity="0.1" stroke-linecap="round"/>
<path opacity="0.27" d="M57.5049 735.638C850.658 542.746 1608.88 165.754 2332.16 -395.339C3055.45 -956.432 3899.06 -883.4 4863.01 -176.243" stroke="url(#paint20_linear_2_3)" stroke-opacity="0.1" stroke-linecap="round"/>
<path opacity="0.23" d="M68.1367 791.668C854.202 561.423 1608.88 165.754 2332.16 -395.34C3055.45 -956.433 3902.6 -864.724 4873.64 -120.213" stroke="url(#paint21_linear_2_3)" stroke-opacity="0.1" stroke-linecap="round"/>
<path opacity="0.2" d="M78.7686 847.698C857.746 580.099 1608.88 165.753 2332.16 -395.34C3055.45 -956.433 3906.15 -846.047 4884.27 -64.1823" stroke="url(#paint22_linear_2_3)" stroke-opacity="0.1" stroke-linecap="round"/>
<path opacity="0.16" d="M89.4014 903.729C861.29 598.777 1608.88 165.754 2332.16 -395.339C3055.45 -956.433 3909.69 -827.37 4894.9 -8.15106" stroke="url(#paint23_linear_2_3)" stroke-opacity="0.1" stroke-linecap="round"/>
<path opacity="0.12" d="M100.033 959.761C864.834 617.454 1608.88 165.754 2332.16 -395.339C3055.45 -956.432 3913.24 -808.692 4905.53 47.8802" stroke="url(#paint24_linear_2_3)" stroke-opacity="0.1" stroke-linecap="round"/>
<path opacity="0.09" d="M110.666 1015.79C868.379 636.131 1608.88 165.754 2332.16 -395.339C3055.45 -956.432 3916.78 -790.016 4916.17 103.911" stroke="url(#paint25_linear_2_3)" stroke-opacity="0.1" stroke-linecap="round"/>
</g>
<defs>
<linearGradient id="paint0_linear_2_3" x1="240247" y1="-45308.3" x2="226835" y2="-115991" gradientUnits="userSpaceOnUse">
<stop stop-color="#034EA2"/>
<stop offset="1" stop-color="#09B89D"/>
</linearGradient>
<linearGradient id="paint1_linear_2_3" x1="240249" y1="-45300.5" x2="227299" y2="-113542" gradientUnits="userSpaceOnUse">
<stop stop-color="#034EA2"/>
<stop offset="1" stop-color="#09B89D"/>
</linearGradient>
<linearGradient id="paint2_linear_2_3" x1="240250" y1="-45292.2" x2="227677" y2="-111552" gradientUnits="userSpaceOnUse">
<stop stop-color="#034EA2"/>
<stop offset="1" stop-color="#09B89D"/>
</linearGradient>
<linearGradient id="paint3_linear_2_3" x1="240252" y1="-45283.2" x2="227980" y2="-109956" gradientUnits="userSpaceOnUse">
<stop stop-color="#034EA2"/>
<stop offset="1" stop-color="#09B89D"/>
</linearGradient>
<linearGradient id="paint4_linear_2_3" x1="240254" y1="-45273.5" x2="228217" y2="-108706" gradientUnits="userSpaceOnUse">
<stop stop-color="#034EA2"/>
<stop offset="1" stop-color="#09B89D"/>
</linearGradient>
<linearGradient id="paint5_linear_2_3" x1="240256" y1="-45263" x2="228395" y2="-107765" gradientUnits="userSpaceOnUse">
<stop stop-color="#034EA2"/>
<stop offset="1" stop-color="#09B89D"/>
</linearGradient>
<linearGradient id="paint6_linear_2_3" x1="240258" y1="-45251.7" x2="228520" y2="-107110" gradientUnits="userSpaceOnUse">
<stop stop-color="#034EA2"/>
<stop offset="1" stop-color="#09B89D"/>
</linearGradient>
<linearGradient id="paint7_linear_2_3" x1="240260" y1="-45239.4" x2="228593" y2="-106723" gradientUnits="userSpaceOnUse">
<stop stop-color="#034EA2"/>
<stop offset="1" stop-color="#09B89D"/>
</linearGradient>
<linearGradient id="paint8_linear_2_3" x1="240263" y1="-45225.9" x2="228618" y2="-106593" gradientUnits="userSpaceOnUse">
<stop stop-color="#034EA2"/>
<stop offset="1" stop-color="#09B89D"/>
</linearGradient>
<linearGradient id="paint9_linear_2_3" x1="240266" y1="-45211.2" x2="228594" y2="-106719" gradientUnits="userSpaceOnUse">
<stop stop-color="#034EA2"/>
<stop offset="1" stop-color="#09B89D"/>
</linearGradient>
<linearGradient id="paint10_linear_2_3" x1="240269" y1="-45195.2" x2="228521" y2="-107104" gradientUnits="userSpaceOnUse">
<stop stop-color="#034EA2"/>
<stop offset="1" stop-color="#09B89D"/>
</linearGradient>
<linearGradient id="paint11_linear_2_3" x1="240272" y1="-45177" x2="228397" y2="-107755" gradientUnits="userSpaceOnUse">
<stop stop-color="#034EA2"/>
<stop offset="1" stop-color="#09B89D"/>
</linearGradient>
<linearGradient id="paint12_linear_2_3" x1="240276" y1="-45157" x2="228219" y2="-108693" gradientUnits="userSpaceOnUse">
<stop stop-color="#034EA2"/>
<stop offset="1" stop-color="#09B89D"/>
</linearGradient>
<linearGradient id="paint13_linear_2_3" x1="240280" y1="-45134.7" x2="227982" y2="-109943" gradientUnits="userSpaceOnUse">
<stop stop-color="#034EA2"/>
<stop offset="1" stop-color="#09B89D"/>
</linearGradient>
<linearGradient id="paint14_linear_2_3" x1="240285" y1="-45109.6" x2="227679" y2="-111540" gradientUnits="userSpaceOnUse">
<stop stop-color="#034EA2"/>
<stop offset="1" stop-color="#09B89D"/>
</linearGradient>
<linearGradient id="paint15_linear_2_3" x1="240290" y1="-45081" x2="227301" y2="-113534" gradientUnits="userSpaceOnUse">
<stop stop-color="#034EA2"/>
<stop offset="1" stop-color="#09B89D"/>
</linearGradient>
<linearGradient id="paint16_linear_2_3" x1="240297" y1="-45048.4" x2="226835" y2="-115991" gradientUnits="userSpaceOnUse">
<stop stop-color="#034EA2"/>
<stop offset="1" stop-color="#09B89D"/>
</linearGradient>
<linearGradient id="paint17_linear_2_3" x1="240304" y1="-45010.7" x2="226263" y2="-119001" gradientUnits="userSpaceOnUse">
<stop stop-color="#034EA2"/>
<stop offset="1" stop-color="#09B89D"/>
</linearGradient>
<linearGradient id="paint18_linear_2_3" x1="240312" y1="-44966.6" x2="225564" y2="-122686" gradientUnits="userSpaceOnUse">
<stop stop-color="#034EA2"/>
<stop offset="1" stop-color="#09B89D"/>
</linearGradient>
<linearGradient id="paint19_linear_2_3" x1="240322" y1="-44914.4" x2="224705" y2="-127212" gradientUnits="userSpaceOnUse">
<stop stop-color="#034EA2"/>
<stop offset="1" stop-color="#09B89D"/>
</linearGradient>
<linearGradient id="paint20_linear_2_3" x1="240333" y1="-47099.5" x2="222162" y2="-138371" gradientUnits="userSpaceOnUse">
<stop stop-color="#034EA2"/>
<stop offset="1" stop-color="#09B89D"/>
</linearGradient>
<linearGradient id="paint21_linear_2_3" x1="240343" y1="-44802.4" x2="222822" y2="-137139" gradientUnits="userSpaceOnUse">
<stop stop-color="#034EA2"/>
<stop offset="1" stop-color="#09B89D"/>
</linearGradient>
<linearGradient id="paint22_linear_2_3" x1="240354" y1="-44746.3" x2="221871" y2="-142151" gradientUnits="userSpaceOnUse">
<stop stop-color="#034EA2"/>
<stop offset="1" stop-color="#09B89D"/>
</linearGradient>
<linearGradient id="paint23_linear_2_3" x1="240364" y1="-44690.3" x2="220914" y2="-147192" gradientUnits="userSpaceOnUse">
<stop stop-color="#034EA2"/>
<stop offset="1" stop-color="#09B89D"/>
</linearGradient>
<linearGradient id="paint24_linear_2_3" x1="240375" y1="-44634.3" x2="219952" y2="-152260" gradientUnits="userSpaceOnUse">
<stop stop-color="#034EA2"/>
<stop offset="1" stop-color="#09B89D"/>
</linearGradient>
<linearGradient id="paint25_linear_2_3" x1="240386" y1="-44578.2" x2="218986" y2="-157352" gradientUnits="userSpaceOnUse">
<stop stop-color="#034EA2"/>
<stop offset="1" stop-color="#09B89D"/>
</linearGradient>
<clipPath id="clip0_2_3">
<rect width="1728" height="584" fill="white"/>
</clipPath>
</defs>
</svg>
