<svg width="32" height="32" viewBox="0 0 32 32" fill="none" xmlns="http://www.w3.org/2000/svg">
<g clip-path="url(#clip0_11_35)">
<mask id="mask0_11_35" style="mask-type:luminance" maskUnits="userSpaceOnUse" x="0" y="0" width="32" height="32">
<path d="M32 0H0V32H32V0Z" fill="white"/>
</mask>
<g mask="url(#mask0_11_35)">
<path d="M19.6723 9.22021H12.3277C11.9196 9.22021 11.5156 9.30058 11.1386 9.45673C10.7616 9.61289 10.419 9.84178 10.1304 10.1303C9.8419 10.4189 9.61301 10.7614 9.45686 11.1384C9.3007 11.5154 9.22033 11.9195 9.22034 12.3276V19.6722C9.22034 20.4963 9.54772 21.2867 10.1305 21.8695C10.419 22.158 10.7616 22.3869 11.1386 22.5431C11.5156 22.6992 11.9196 22.7796 12.3277 22.7796H19.6723C20.4965 22.7796 21.2868 22.4522 21.8695 21.8694C22.4523 21.2867 22.7796 20.4963 22.7796 19.6722V12.3276C22.7797 11.9195 22.6993 11.5155 22.5431 11.1385C22.387 10.7615 22.1581 10.4189 21.8696 10.1303C21.581 9.8418 21.2385 9.61291 20.8615 9.45675C20.4845 9.30059 20.0804 9.22021 19.6723 9.22021ZM16 20.2743C15.1546 20.2743 14.3282 20.0236 13.6253 19.554C12.9223 19.0843 12.3745 18.4167 12.051 17.6357C11.7274 16.8546 11.6428 15.9952 11.8077 15.166C11.9726 14.3368 12.3798 13.5752 12.9775 12.9774C13.5753 12.3796 14.337 11.9725 15.1661 11.8076C15.9953 11.6427 16.8547 11.7273 17.6358 12.0508C18.4168 12.3744 19.0844 12.9222 19.5541 13.6252C20.0238 14.3281 20.2745 15.1545 20.2745 15.9999C20.2745 16.5612 20.1639 17.1171 19.9491 17.6357C19.7343 18.1543 19.4194 18.6255 19.0225 19.0224C18.6256 19.4193 18.1544 19.7342 17.6358 19.949C17.1172 20.1638 16.5614 20.2743 16 20.2743ZM20.4527 12.5987C20.2515 12.5987 20.0549 12.539 19.8877 12.4273C19.7204 12.3156 19.5901 12.1567 19.5131 11.9709C19.4361 11.7851 19.416 11.5806 19.4552 11.3834C19.4944 11.1861 19.5913 11.0049 19.7335 10.8627C19.8757 10.7204 20.0569 10.6236 20.2542 10.5843C20.4514 10.5451 20.6559 10.5652 20.8417 10.6422C21.0276 10.7191 21.1864 10.8495 21.2981 11.0167C21.4099 11.184 21.4695 11.3806 21.4695 11.5817C21.4695 11.8514 21.3624 12.1101 21.1717 12.3008C20.981 12.4915 20.7223 12.5986 20.4527 12.5987Z" fill="url(#paint0_linear_11_35)"/>
<path d="M16 13.2217C15.4505 13.2217 14.9133 13.3846 14.4564 13.6899C13.9995 13.9952 13.6433 14.4292 13.4331 14.9369C13.2228 15.4445 13.1677 16.0032 13.2749 16.5422C13.3822 17.0811 13.6468 17.5762 14.0353 17.9648C14.4239 18.3533 14.919 18.618 15.4579 18.7252C15.9969 18.8324 16.5556 18.7774 17.0633 18.5671C17.571 18.3568 18.0049 18.0006 18.3102 17.5437C18.6155 17.0868 18.7784 16.5496 18.7784 16.0001C18.7784 15.2632 18.4857 14.5565 17.9646 14.0355C17.4436 13.5144 16.7369 13.2217 16 13.2217Z" fill="url(#paint1_linear_11_35)"/>
<path d="M16 0C7.16344 0 0 7.16344 0 16C0 24.8366 7.16344 32 16 32C24.8366 32 32 24.8366 32 16C32 7.16344 24.8366 0 16 0ZM24.3333 19.5312C24.3333 20.8048 23.8273 22.0262 22.9268 22.9268C22.0262 23.8273 20.8048 24.3333 19.5312 24.3333H12.4688C11.1952 24.3333 9.97377 23.8273 9.07321 22.9268C8.17265 22.0262 7.66669 20.8048 7.66663 19.5312V12.4688C7.66667 11.1952 8.17263 9.97376 9.07319 9.07321C9.97376 8.17266 11.1952 7.66672 12.4688 7.66669H19.5312C20.8048 7.66674 22.0262 8.17268 22.9268 9.07323C23.8273 9.97378 24.3333 11.1952 24.3333 12.4688V19.5312Z" fill="url(#paint2_linear_11_35)"/>
</g>
</g>
<defs>
<linearGradient id="paint0_linear_11_35" x1="0.500022" y1="31.4999" x2="31.6453" y2="0.354594" gradientUnits="userSpaceOnUse">
<stop stop-color="#FFCB52"/>
<stop offset="0.318" stop-color="#FF6341"/>
<stop offset="0.658" stop-color="#CD39A2"/>
<stop offset="1" stop-color="#515BCA"/>
</linearGradient>
<linearGradient id="paint1_linear_11_35" x1="0.499988" y1="31.5001" x2="31.6453" y2="0.354807" gradientUnits="userSpaceOnUse">
<stop stop-color="#FFCB52"/>
<stop offset="0.318" stop-color="#FF6341"/>
<stop offset="0.658" stop-color="#CD39A2"/>
<stop offset="1" stop-color="#515BCA"/>
</linearGradient>
<linearGradient id="paint2_linear_11_35" x1="0.499999" y1="31.5" x2="31.6453" y2="0.354689" gradientUnits="userSpaceOnUse">
<stop stop-color="#FFCB52"/>
<stop offset="0.318" stop-color="#FF6341"/>
<stop offset="0.658" stop-color="#CD39A2"/>
<stop offset="1" stop-color="#515BCA"/>
</linearGradient>
<clipPath id="clip0_11_35">
<rect width="32" height="32" fill="white"/>
</clipPath>
</defs>
</svg>
